<?xml version="1.0" encoding="UTF-8"?>
<!DOCTYPE svg PUBLIC "-//W3C//DTD SVG 1.1//EN" "http://www.w3.org/Graphics/SVG/1.1/DTD/svg11.dtd">
<svg xmlns="http://www.w3.org/2000/svg" xmlns:xlink="http://www.w3.org/1999/xlink" version="1.1" width="432px" height="111px" viewBox="-0.5 -0.5 432 111"><defs/><g><rect x="100.48" y="0" width="200" height="20" rx="3" ry="3" fill="#fff2cc" stroke="#d6b656" pointer-events="all"/><g fill="rgb(0, 0, 0)" font-family="Helvetica" text-anchor="middle" font-size="12px"><text x="199.98" y="14.5">P1</text></g><rect x="19.52" y="20" width="60" height="20" rx="3" ry="3" fill="#ffe6cc" stroke="#d79b00" pointer-events="all"/><g fill="rgb(0, 0, 0)" font-family="Helvetica" text-anchor="middle" font-size="12px"><text x="49.02" y="34.5">P2</text></g><rect x="300.48" y="39.52" width="100" height="20" rx="3" ry="3" fill="#d5e8d4" stroke="#82b366" pointer-events="all"/><g fill="rgb(0, 0, 0)" font-family="Helvetica" text-anchor="middle" font-size="12px"><text x="349.98" y="54.02">P3</text></g><rect x="80.48" y="60" width="20" height="20" rx="3" ry="3" fill="#dae8fc" stroke="#6c8ebf" pointer-events="all"/><g fill="rgb(0, 0, 0)" font-family="Helvetica" text-anchor="middle" font-size="12px"><text x="89.98" y="74.5">P4</text></g><path d="M 100.48 90.48 L 100.48 20" fill="none" stroke="rgb(0, 0, 0)" stroke-miterlimit="10" stroke-dasharray="3 3" pointer-events="stroke"/><path d="M 19.52 90 L 19.04 40" fill="none" stroke="rgb(0, 0, 0)" stroke-miterlimit="10" stroke-dasharray="3 3" pointer-events="stroke"/><path d="M 79.52 90 L 79.52 40" fill="none" stroke="rgb(0, 0, 0)" stroke-miterlimit="10" stroke-dasharray="3 3" pointer-events="stroke"/><rect x="0" y="90" width="40" height="20" fill="none" stroke="none" pointer-events="all"/><g fill="rgb(0, 0, 0)" font-family="Helvetica" text-anchor="middle" font-size="12px"><text x="19.5" y="104.5">0 ms</text></g><rect x="56" y="90" width="40" height="20" fill="none" stroke="none" pointer-events="all"/><g fill="rgb(0, 0, 0)" font-family="Helvetica" text-anchor="middle" font-size="12px"><text x="75.5" y="104.5">3 ms</text></g><path d="M 106.85 80 L 294.11 80" fill="none" stroke="rgb(0, 0, 0)" stroke-miterlimit="10" pointer-events="stroke"/><path d="M 101.6 80 L 108.6 76.5 L 106.85 80 L 108.6 83.5 Z" fill="rgb(0, 0, 0)" stroke="rgb(0, 0, 0)" stroke-miterlimit="10" pointer-events="all"/><path d="M 299.36 80 L 292.36 83.5 L 294.11 80 L 292.36 76.5 Z" fill="rgb(0, 0, 0)" stroke="rgb(0, 0, 0)" stroke-miterlimit="10" pointer-events="all"/><g fill="rgb(0, 0, 0)" font-family="Helvetica" text-anchor="middle" font-size="11px"><rect fill="rgb(255, 255, 255)" stroke="none" x="185" y="74" width="32" height="14" stroke-width="0"/><text x="199.98" y="84">10 ms</text></g><path d="M 25.89 80 L 73.15 80" fill="none" stroke="rgb(0, 0, 0)" stroke-miterlimit="10" pointer-events="stroke"/><path d="M 20.64 80 L 27.64 76.5 L 25.89 80 L 27.64 83.5 Z" fill="rgb(0, 0, 0)" stroke="rgb(0, 0, 0)" stroke-miterlimit="10" pointer-events="all"/><path d="M 78.4 80 L 71.4 83.5 L 73.15 80 L 71.4 76.5 Z" fill="rgb(0, 0, 0)" stroke="rgb(0, 0, 0)" stroke-miterlimit="10" pointer-events="all"/><g fill="rgb(0, 0, 0)" font-family="Helvetica" text-anchor="middle" font-size="11px"><rect fill="rgb(255, 255, 255)" stroke="none" x="37" y="74" width="26" height="14" stroke-width="0"/><text x="49.02" y="84">3 ms</text></g><path d="M 306.85 79.52 L 394.11 79.52" fill="none" stroke="rgb(0, 0, 0)" stroke-miterlimit="10" pointer-events="stroke"/><path d="M 301.6 79.52 L 308.6 76.02 L 306.85 79.52 L 308.6 83.02 Z" fill="rgb(0, 0, 0)" stroke="rgb(0, 0, 0)" stroke-miterlimit="10" pointer-events="all"/><path d="M 399.36 79.52 L 392.36 83.02 L 394.11 79.52 L 392.36 76.02 Z" fill="rgb(0, 0, 0)" stroke="rgb(0, 0, 0)" stroke-miterlimit="10" pointer-events="all"/><g fill="rgb(0, 0, 0)" font-family="Helvetica" text-anchor="middle" font-size="11px"><rect fill="rgb(255, 255, 255)" stroke="none" x="338" y="74" width="26" height="14" stroke-width="0"/><text x="349.98" y="83.52">5 ms</text></g><path d="M 300.48 90.96 L 300.48 20.48" fill="none" stroke="rgb(0, 0, 0)" stroke-miterlimit="10" stroke-dasharray="3 3" pointer-events="stroke"/><rect x="85" y="90" width="40" height="20" fill="none" stroke="none" pointer-events="all"/><g fill="rgb(0, 0, 0)" font-family="Helvetica" text-anchor="middle" font-size="12px"><text x="104.5" y="104.5">4 ms</text></g><rect x="275" y="90" width="50" height="20" fill="none" stroke="none" pointer-events="all"/><g fill="rgb(0, 0, 0)" font-family="Helvetica" text-anchor="middle" font-size="12px"><text x="299.5" y="104.5">14 ms</text></g><rect x="380" y="90" width="50" height="20" fill="none" stroke="none" pointer-events="all"/><g fill="rgb(0, 0, 0)" font-family="Helvetica" text-anchor="middle" font-size="12px"><text x="404.5" y="104.5">19 ms</text></g><path d="M 400 90 L 400.48 59.52" fill="none" stroke="rgb(0, 0, 0)" stroke-miterlimit="10" stroke-dasharray="3 3" pointer-events="stroke"/></g></svg>