<?xml version="1.0" encoding="UTF-8"?>
<!DOCTYPE svg PUBLIC "-//W3C//DTD SVG 1.1//EN" "http://www.w3.org/Graphics/SVG/1.1/DTD/svg11.dtd">
<svg xmlns="http://www.w3.org/2000/svg" xmlns:xlink="http://www.w3.org/1999/xlink" version="1.1" width="426px" height="112px" viewBox="-0.5 -0.5 426 112"><defs/><g><rect x="205" y="-0.48" width="200" height="20" rx="3" ry="3" fill="#fff2cc" stroke="#d6b656" pointer-events="all"/><g fill="rgb(0, 0, 0)" font-family="Helvetica" text-anchor="middle" font-size="12px"><text x="304.5" y="14.02">P1</text></g><rect x="45.48" y="20" width="60" height="20" rx="3" ry="3" fill="#ffe6cc" stroke="#d79b00" pointer-events="all"/><g fill="rgb(0, 0, 0)" font-family="Helvetica" text-anchor="middle" font-size="12px"><text x="74.98" y="34.5">P2</text></g><rect x="105.48" y="39.52" width="100" height="20" rx="3" ry="3" fill="#d5e8d4" stroke="#82b366" pointer-events="all"/><g fill="rgb(0, 0, 0)" font-family="Helvetica" text-anchor="middle" font-size="12px"><text x="154.98" y="54.02">P3</text></g><rect x="24.52" y="60" width="20" height="20" rx="3" ry="3" fill="#dae8fc" stroke="#6c8ebf" pointer-events="all"/><g fill="rgb(0, 0, 0)" font-family="Helvetica" text-anchor="middle" font-size="12px"><text x="34.02" y="74.5">P4</text></g><path d="M 205 90 L 205 19.52" fill="none" stroke="rgb(0, 0, 0)" stroke-miterlimit="10" stroke-dasharray="3 3" pointer-events="stroke"/><path d="M 45.48 90 L 45 40" fill="none" stroke="rgb(0, 0, 0)" stroke-miterlimit="10" stroke-dasharray="3 3" pointer-events="stroke"/><path d="M 105.48 90 L 105.48 40" fill="none" stroke="rgb(0, 0, 0)" stroke-miterlimit="10" stroke-dasharray="3 3" pointer-events="stroke"/><path d="M 24.52 90 L 24.04 80" fill="none" stroke="rgb(0, 0, 0)" stroke-miterlimit="10" stroke-dasharray="3 3" pointer-events="stroke"/><rect x="0" y="90" width="40" height="20" fill="none" stroke="none" pointer-events="all"/><g fill="rgb(0, 0, 0)" font-family="Helvetica" text-anchor="middle" font-size="12px"><text x="19.5" y="104.5">0 ms</text></g><rect x="29" y="90" width="40" height="20" fill="none" stroke="none" pointer-events="all"/><g fill="rgb(0, 0, 0)" font-family="Helvetica" text-anchor="middle" font-size="12px"><text x="48.5" y="104.5">1 ms</text></g><path d="M 211.37 79.52 L 398.63 79.52" fill="none" stroke="rgb(0, 0, 0)" stroke-miterlimit="10" pointer-events="stroke"/><path d="M 206.12 79.52 L 213.12 76.02 L 211.37 79.52 L 213.12 83.02 Z" fill="rgb(0, 0, 0)" stroke="rgb(0, 0, 0)" stroke-miterlimit="10" pointer-events="all"/><path d="M 403.88 79.52 L 396.88 83.02 L 398.63 79.52 L 396.88 76.02 Z" fill="rgb(0, 0, 0)" stroke="rgb(0, 0, 0)" stroke-miterlimit="10" pointer-events="all"/><g fill="rgb(0, 0, 0)" font-family="Helvetica" text-anchor="middle" font-size="11px"><rect fill="rgb(255, 255, 255)" stroke="none" x="290" y="74" width="32" height="14" stroke-width="0"/><text x="304.5" y="83.52">10 ms</text></g><path d="M 51.85 80 L 99.11 80" fill="none" stroke="rgb(0, 0, 0)" stroke-miterlimit="10" pointer-events="stroke"/><path d="M 46.6 80 L 53.6 76.5 L 51.85 80 L 53.6 83.5 Z" fill="rgb(0, 0, 0)" stroke="rgb(0, 0, 0)" stroke-miterlimit="10" pointer-events="all"/><path d="M 104.36 80 L 97.36 83.5 L 99.11 80 L 97.36 76.5 Z" fill="rgb(0, 0, 0)" stroke="rgb(0, 0, 0)" stroke-miterlimit="10" pointer-events="all"/><g fill="rgb(0, 0, 0)" font-family="Helvetica" text-anchor="middle" font-size="11px"><rect fill="rgb(255, 255, 255)" stroke="none" x="63" y="74" width="26" height="14" stroke-width="0"/><text x="74.98" y="84">3 ms</text></g><path d="M 111.85 79.52 L 199.11 79.52" fill="none" stroke="rgb(0, 0, 0)" stroke-miterlimit="10" pointer-events="stroke"/><path d="M 106.6 79.52 L 113.6 76.02 L 111.85 79.52 L 113.6 83.02 Z" fill="rgb(0, 0, 0)" stroke="rgb(0, 0, 0)" stroke-miterlimit="10" pointer-events="all"/><path d="M 204.36 79.52 L 197.36 83.02 L 199.11 79.52 L 197.36 76.02 Z" fill="rgb(0, 0, 0)" stroke="rgb(0, 0, 0)" stroke-miterlimit="10" pointer-events="all"/><g fill="rgb(0, 0, 0)" font-family="Helvetica" text-anchor="middle" font-size="11px"><rect fill="rgb(255, 255, 255)" stroke="none" x="143" y="74" width="26" height="14" stroke-width="0"/><text x="154.98" y="83.52">5 ms</text></g><path d="M 405 90.48 L 405 20" fill="none" stroke="rgb(0, 0, 0)" stroke-miterlimit="10" stroke-dasharray="3 3" pointer-events="stroke"/><rect x="85" y="90" width="40" height="20" fill="none" stroke="none" pointer-events="all"/><g fill="rgb(0, 0, 0)" font-family="Helvetica" text-anchor="middle" font-size="12px"><text x="104.5" y="104.5">4 ms</text></g><rect x="185" y="90" width="40" height="20" fill="none" stroke="none" pointer-events="all"/><g fill="rgb(0, 0, 0)" font-family="Helvetica" text-anchor="middle" font-size="12px"><text x="204.5" y="104.5">9 ms</text></g><rect x="375" y="90" width="50" height="20" fill="none" stroke="none" pointer-events="all"/><g fill="rgb(0, 0, 0)" font-family="Helvetica" text-anchor="middle" font-size="12px"><text x="399.5" y="104.5">19 ms</text></g></g></svg>