<?xml version="1.0" encoding="UTF-8"?>
<!DOCTYPE svg PUBLIC "-//W3C//DTD SVG 1.1//EN" "http://www.w3.org/Graphics/SVG/1.1/DTD/svg11.dtd">
<svg xmlns="http://www.w3.org/2000/svg" xmlns:xlink="http://www.w3.org/1999/xlink" version="1.1" width="427px" height="111px" viewBox="-0.5 -0.5 427 111"><defs/><g><rect x="20" y="0" width="80" height="20" rx="3" ry="3" fill="#fff2cc" stroke="#d6b656" pointer-events="all"/><g fill="rgb(0, 0, 0)" font-family="Helvetica" text-anchor="middle" font-size="12px"><text x="59.5" y="14.5">P1</text></g><rect x="100" y="20" width="60" height="20" rx="3" ry="3" fill="#ffe6cc" stroke="#d79b00" pointer-events="all"/><g fill="rgb(0, 0, 0)" font-family="Helvetica" text-anchor="middle" font-size="12px"><text x="129.5" y="34.5">P2</text></g><rect x="160" y="40" width="80" height="20" rx="3" ry="3" fill="#d5e8d4" stroke="#82b366" pointer-events="all"/><g fill="rgb(0, 0, 0)" font-family="Helvetica" text-anchor="middle" font-size="12px"><text x="199.5" y="54.5">P3</text></g><rect x="240" y="60" width="20" height="20" rx="3" ry="3" fill="#dae8fc" stroke="#6c8ebf" pointer-events="all"/><g fill="rgb(0, 0, 0)" font-family="Helvetica" text-anchor="middle" font-size="12px"><text x="249.5" y="74.5">P4</text></g><rect x="260" y="40" width="20" height="20" rx="3" ry="3" fill="#d5e8d4" stroke="#82b366" pointer-events="all"/><g fill="rgb(0, 0, 0)" font-family="Helvetica" text-anchor="middle" font-size="12px"><text x="269.5" y="54.5">P3</text></g><rect x="280" y="0" width="80" height="20" rx="3" ry="3" fill="#fff2cc" stroke="#d6b656" pointer-events="all"/><g fill="rgb(0, 0, 0)" font-family="Helvetica" text-anchor="middle" font-size="12px"><text x="319.5" y="14.5">P1</text></g><rect x="360" y="0" width="40" height="20" rx="3" ry="3" fill="#fff2cc" stroke="#d6b656" pointer-events="all"/><g fill="rgb(0, 0, 0)" font-family="Helvetica" text-anchor="middle" font-size="12px"><text x="379.5" y="14.5">P1</text></g><path d="M 99.91 90 L 99.43 40" fill="none" stroke="rgb(0, 0, 0)" stroke-miterlimit="10" stroke-dasharray="3 3" pointer-events="stroke"/><path d="M 159.43 90.48 L 159.91 60" fill="none" stroke="rgb(0, 0, 0)" stroke-miterlimit="10" stroke-dasharray="3 3" pointer-events="stroke"/><path d="M 239 90 L 239.43 80" fill="none" stroke="rgb(0, 0, 0)" stroke-miterlimit="10" stroke-dasharray="3 3" pointer-events="stroke"/><path d="M 260 90 L 260.43 80" fill="none" stroke="rgb(0, 0, 0)" stroke-miterlimit="10" stroke-dasharray="3 3" pointer-events="stroke"/><path d="M 280.48 90.48 L 280 20" fill="none" stroke="rgb(0, 0, 0)" stroke-miterlimit="10" stroke-dasharray="3 3" pointer-events="stroke"/><path d="M 360.48 90.48 L 360 20" fill="none" stroke="rgb(0, 0, 0)" stroke-miterlimit="10" stroke-dasharray="3 3" pointer-events="stroke"/><path d="M 400.48 90.48 L 400 20" fill="none" stroke="rgb(0, 0, 0)" stroke-miterlimit="10" stroke-dasharray="3 3" pointer-events="stroke"/><path d="M 20.48 90.48 L 20 20" fill="none" stroke="rgb(0, 0, 0)" stroke-miterlimit="10" stroke-dasharray="3 3" pointer-events="stroke"/><rect x="-0.48" y="90" width="40" height="20" fill="none" stroke="none" pointer-events="all"/><g fill="rgb(0, 0, 0)" font-family="Helvetica" text-anchor="middle" font-size="12px"><text x="19.02" y="104.5">0 ms</text></g><rect x="80.48" y="90" width="40" height="20" fill="none" stroke="none" pointer-events="all"/><g fill="rgb(0, 0, 0)" font-family="Helvetica" text-anchor="middle" font-size="12px"><text x="99.98" y="104.5">4 ms</text></g><rect x="140" y="90" width="40" height="20" fill="none" stroke="none" pointer-events="all"/><g fill="rgb(0, 0, 0)" font-family="Helvetica" text-anchor="middle" font-size="12px"><text x="159.5" y="104.5">7 ms</text></g><rect x="210" y="90" width="40" height="20" fill="none" stroke="none" pointer-events="all"/><g fill="rgb(0, 0, 0)" font-family="Helvetica" text-anchor="middle" font-size="10px"><text x="229.5" y="103.5">11 ms</text></g><rect x="240" y="90" width="40" height="20" fill="none" stroke="none" pointer-events="all"/><g fill="rgb(0, 0, 0)" font-family="Helvetica" text-anchor="middle" font-size="10px"><text x="259.5" y="103.5">12 ms</text></g><rect x="270" y="90" width="40" height="20" fill="none" stroke="none" pointer-events="all"/><g fill="rgb(0, 0, 0)" font-family="Helvetica" text-anchor="middle" font-size="10px"><text x="289.5" y="103.5">13 ms</text></g><rect x="335.48" y="90" width="50" height="20" fill="none" stroke="none" pointer-events="all"/><g fill="rgb(0, 0, 0)" font-family="Helvetica" text-anchor="middle" font-size="12px"><text x="359.98" y="104.5">17 ms</text></g><rect x="375.48" y="90" width="50" height="20" fill="none" stroke="none" pointer-events="all"/><g fill="rgb(0, 0, 0)" font-family="Helvetica" text-anchor="middle" font-size="12px"><text x="399.98" y="104.5">19 ms</text></g><path d="M 106.37 80 L 153.63 80" fill="none" stroke="rgb(0, 0, 0)" stroke-miterlimit="10" pointer-events="stroke"/><path d="M 101.12 80 L 108.12 76.5 L 106.37 80 L 108.12 83.5 Z" fill="rgb(0, 0, 0)" stroke="rgb(0, 0, 0)" stroke-miterlimit="10" pointer-events="all"/><path d="M 158.88 80 L 151.88 83.5 L 153.63 80 L 151.88 76.5 Z" fill="rgb(0, 0, 0)" stroke="rgb(0, 0, 0)" stroke-miterlimit="10" pointer-events="all"/><g fill="rgb(0, 0, 0)" font-family="Helvetica" text-anchor="middle" font-size="11px"><rect fill="rgb(255, 255, 255)" stroke="none" x="118" y="74" width="26" height="14" stroke-width="0"/><text x="129.84" y="84">3 ms</text></g><path d="M 26.37 80 L 93.15 80" fill="none" stroke="rgb(0, 0, 0)" stroke-miterlimit="10" pointer-events="stroke"/><path d="M 21.12 80 L 28.12 76.5 L 26.37 80 L 28.12 83.5 Z" fill="rgb(0, 0, 0)" stroke="rgb(0, 0, 0)" stroke-miterlimit="10" pointer-events="all"/><path d="M 98.4 80 L 91.4 83.5 L 93.15 80 L 91.4 76.5 Z" fill="rgb(0, 0, 0)" stroke="rgb(0, 0, 0)" stroke-miterlimit="10" pointer-events="all"/><g fill="rgb(0, 0, 0)" font-family="Helvetica" text-anchor="middle" font-size="11px"><rect fill="rgb(255, 255, 255)" stroke="none" x="48" y="74" width="26" height="14" stroke-width="0"/><text x="59.5" y="84">4 ms</text></g><path d="M 166.37 80 L 233.63 80" fill="none" stroke="rgb(0, 0, 0)" stroke-miterlimit="10" pointer-events="stroke"/><path d="M 161.12 80 L 168.12 76.5 L 166.37 80 L 168.12 83.5 Z" fill="rgb(0, 0, 0)" stroke="rgb(0, 0, 0)" stroke-miterlimit="10" pointer-events="all"/><path d="M 238.88 80 L 231.88 83.5 L 233.63 80 L 231.88 76.5 Z" fill="rgb(0, 0, 0)" stroke="rgb(0, 0, 0)" stroke-miterlimit="10" pointer-events="all"/><g fill="rgb(0, 0, 0)" font-family="Helvetica" text-anchor="middle" font-size="11px"><rect fill="rgb(255, 255, 255)" stroke="none" x="188" y="74" width="26" height="14" stroke-width="0"/><text x="199.5" y="84">4 ms</text></g><path d="M 286.85 80 L 353.63 80" fill="none" stroke="rgb(0, 0, 0)" stroke-miterlimit="10" pointer-events="stroke"/><path d="M 281.6 80 L 288.6 76.5 L 286.85 80 L 288.6 83.5 Z" fill="rgb(0, 0, 0)" stroke="rgb(0, 0, 0)" stroke-miterlimit="10" pointer-events="all"/><path d="M 358.88 80 L 351.88 83.5 L 353.63 80 L 351.88 76.5 Z" fill="rgb(0, 0, 0)" stroke="rgb(0, 0, 0)" stroke-miterlimit="10" pointer-events="all"/><g fill="rgb(0, 0, 0)" font-family="Helvetica" text-anchor="middle" font-size="11px"><rect fill="rgb(255, 255, 255)" stroke="none" x="308" y="74" width="26" height="14" stroke-width="0"/><text x="319.98" y="84">4 ms</text></g><path d="M 366.37 80 L 393.63 80" fill="none" stroke="rgb(0, 0, 0)" stroke-miterlimit="10" pointer-events="stroke"/><path d="M 361.12 80 L 368.12 76.5 L 366.37 80 L 368.12 83.5 Z" fill="rgb(0, 0, 0)" stroke="rgb(0, 0, 0)" stroke-miterlimit="10" pointer-events="all"/><path d="M 398.88 80 L 391.88 83.5 L 393.63 80 L 391.88 76.5 Z" fill="rgb(0, 0, 0)" stroke="rgb(0, 0, 0)" stroke-miterlimit="10" pointer-events="all"/><g fill="rgb(0, 0, 0)" font-family="Helvetica" text-anchor="middle" font-size="11px"><rect fill="rgb(255, 255, 255)" stroke="none" x="368" y="74" width="26" height="14" stroke-width="0"/><text x="379.5" y="84">2 ms</text></g></g></svg>