<?xml version="1.0" encoding="UTF-8"?>
<!DOCTYPE svg PUBLIC "-//W3C//DTD SVG 1.1//EN" "http://www.w3.org/Graphics/SVG/1.1/DTD/svg11.dtd">
<svg xmlns="http://www.w3.org/2000/svg" xmlns:xlink="http://www.w3.org/1999/xlink" version="1.1" width="474px" height="268px" viewBox="-0.5 -0.5 474 268"><defs/><g><path d="M 303.37 135 L 346.63 135" fill="none" stroke="rgb(0, 0, 0)" stroke-miterlimit="10" pointer-events="stroke"/><path d="M 298.12 135 L 305.12 131.5 L 303.37 135 L 305.12 138.5 Z" fill="rgb(0, 0, 0)" stroke="rgb(0, 0, 0)" stroke-miterlimit="10" pointer-events="all"/><path d="M 351.88 135 L 344.88 138.5 L 346.63 135 L 344.88 131.5 Z" fill="rgb(0, 0, 0)" stroke="rgb(0, 0, 0)" stroke-miterlimit="10" pointer-events="all"/><path d="M 170.63 135 L 126.37 135" fill="none" stroke="rgb(0, 0, 0)" stroke-miterlimit="10" pointer-events="stroke"/><path d="M 175.88 135 L 168.88 138.5 L 170.63 135 L 168.88 131.5 Z" fill="rgb(0, 0, 0)" stroke="rgb(0, 0, 0)" stroke-miterlimit="10" pointer-events="all"/><path d="M 121.12 135 L 128.12 131.5 L 126.37 135 L 128.12 138.5 Z" fill="rgb(0, 0, 0)" stroke="rgb(0, 0, 0)" stroke-miterlimit="10" pointer-events="all"/><path d="M 207 171.37 L 207 200.63" fill="none" stroke="rgb(0, 0, 0)" stroke-miterlimit="10" pointer-events="stroke"/><path d="M 207 166.12 L 210.5 173.12 L 207 171.37 L 203.5 173.12 Z" fill="rgb(0, 0, 0)" stroke="rgb(0, 0, 0)" stroke-miterlimit="10" pointer-events="all"/><path d="M 207 205.88 L 203.5 198.88 L 207 200.63 L 210.5 198.88 Z" fill="rgb(0, 0, 0)" stroke="rgb(0, 0, 0)" stroke-miterlimit="10" pointer-events="all"/><g fill="#000000" font-family="Helvetica" text-anchor="middle" font-size="11px" transform="rotate(-90,200.5,186.18)"><text x="200" y="190.18">dane</text></g><path d="M 267 165 L 267 200.63" fill="none" stroke="rgb(0, 0, 0)" stroke-miterlimit="10" pointer-events="stroke"/><path d="M 267 205.88 L 263.5 198.88 L 267 200.63 L 270.5 198.88 Z" fill="rgb(0, 0, 0)" stroke="rgb(0, 0, 0)" stroke-miterlimit="10" pointer-events="all"/><g fill="#000000" font-family="Helvetica" text-anchor="middle" font-size="11px" transform="rotate(-90,260.5,186.18)"><text x="260" y="190.18">adres</text></g><path d="M 267 105 L 267 66.37" fill="none" stroke="rgb(0, 0, 0)" stroke-miterlimit="10" pointer-events="stroke"/><path d="M 267 61.12 L 270.5 68.12 L 267 66.37 L 263.5 68.12 Z" fill="rgb(0, 0, 0)" stroke="rgb(0, 0, 0)" stroke-miterlimit="10" pointer-events="all"/><g fill="#000000" font-family="Helvetica" text-anchor="middle" font-size="11px" transform="rotate(-90,260.5,82.65)"><text x="260" y="86.65">adres</text></g><rect x="177" y="105" width="120" height="60" rx="9" ry="9" fill="#b0e3e6" stroke="rgb(0, 0, 0)" pointer-events="all"/><g fill="#000000" font-family="Helvetica" text-anchor="middle" font-size="12px"><text x="236.5" y="132.5">Jednostka</text><text x="236.5" y="146.5">sterująca</text></g><rect x="0" y="105" width="120" height="60" rx="9" ry="9" fill="#fad9d5" stroke="#ae4132" pointer-events="all"/><g fill="#000000" font-family="Helvetica" text-anchor="middle" font-size="12px"><text x="59.5" y="125.5">Arithmetic</text><text x="59.5" y="139.5">Logic</text><text x="59.5" y="153.5">Unit</text></g><rect x="177" y="0" width="120" height="60" rx="9" ry="9" fill="#b1ddf0" stroke="#10739e" pointer-events="all"/><g fill="#000000" font-family="Helvetica" text-anchor="middle" font-size="12px"><text x="236.5" y="27.5">Pamięć</text><text x="236.5" y="41.5">instrukcji</text></g><rect x="177" y="207" width="120" height="60" rx="9" ry="9" fill="#b1ddf0" stroke="#10739e" pointer-events="all"/><g fill="#000000" font-family="Helvetica" text-anchor="middle" font-size="12px"><text x="236.5" y="234.5">Pamięć</text><text x="236.5" y="248.5">danych</text></g><rect x="353" y="105" width="120" height="60" rx="9" ry="9" fill="#d0cee2" stroke="#56517e" pointer-events="all"/><g fill="#000000" font-family="Helvetica" text-anchor="middle" font-size="12px"><text x="412.5" y="132.5">Kontroler</text><text x="412.5" y="146.5">I/O</text></g><path d="M 207 66.37 L 207 98.63" fill="none" stroke="rgb(0, 0, 0)" stroke-miterlimit="10" pointer-events="stroke"/><path d="M 207 61.12 L 210.5 68.12 L 207 66.37 L 203.5 68.12 Z" fill="rgb(0, 0, 0)" stroke="rgb(0, 0, 0)" stroke-miterlimit="10" pointer-events="all"/><path d="M 207 103.88 L 203.5 96.88 L 207 98.63 L 210.5 96.88 Z" fill="rgb(0, 0, 0)" stroke="rgb(0, 0, 0)" stroke-miterlimit="10" pointer-events="all"/><g fill="#000000" font-family="Helvetica" text-anchor="middle" font-size="11px" transform="rotate(-90,200.5,82.35)"><text x="200" y="86.35">dane</text></g></g></svg>