<?xml version="1.0" encoding="UTF-8"?>
<!DOCTYPE svg PUBLIC "-//W3C//DTD SVG 1.1//EN" "http://www.w3.org/Graphics/SVG/1.1/DTD/svg11.dtd">
<svg xmlns="http://www.w3.org/2000/svg" xmlns:xlink="http://www.w3.org/1999/xlink" version="1.1" width="642px" height="43px" viewBox="-0.5 -0.5 642 43"><defs/><g><rect x="0" y="0" width="640" height="40" fill="rgb(255, 255, 255)" stroke="rgb(0, 0, 0)" pointer-events="all"/><rect x="0" y="0" width="400" height="40" fill="#e3c800" stroke="#b09500" pointer-events="all"/><g fill="#000000" font-family="Helvetica" text-anchor="middle" font-size="12px"><text x="199.5" y="24.5">Page Frame Address</text></g><rect x="400" y="0" width="60" height="40" fill="#6d8764" stroke="#3a5431" pointer-events="all"/><g fill="#ffffff" font-family="Helvetica" text-anchor="middle" font-size="12px"><text x="429.5" y="24.5">AVL</text></g><rect x="460" y="0" width="40" height="40" fill="rgb(255, 255, 255)" stroke="rgb(0, 0, 0)" pointer-events="all"/><g fill="rgb(0, 0, 0)" font-family="Helvetica" text-anchor="middle" font-size="12px"><text x="479.5" y="24.5">0 0</text></g><rect x="500" y="0" width="20" height="40" fill="#a0522d" stroke="#6d1f00" pointer-events="all"/><g fill="#ffffff" font-family="Helvetica" text-anchor="middle" font-size="12px"><text x="509.5" y="24.5">D</text></g><rect x="520" y="0" width="20" height="40" fill="#76608a" stroke="#432d57" pointer-events="all"/><g fill="#ffffff" font-family="Helvetica" text-anchor="middle" font-size="12px"><text x="529.5" y="24.5">A</text></g><rect x="540" y="0" width="40" height="40" fill="rgb(255, 255, 255)" stroke="rgb(0, 0, 0)" pointer-events="all"/><g fill="rgb(0, 0, 0)" font-family="Helvetica" text-anchor="middle" font-size="12px"><text x="559.5" y="24.5">0 0</text></g><rect x="580" y="0" width="20" height="40" fill="#fa6800" stroke="#c73500" pointer-events="all"/><g fill="#000000" font-family="Helvetica" text-anchor="middle" font-size="12px"><text x="589.5" y="10.5">U</text><text x="589.5" y="24.5">/</text><text x="589.5" y="38.5">S</text></g><rect x="600" y="0" width="20" height="40" fill="#e51400" stroke="#b20000" pointer-events="all"/><g fill="#ffffff" font-family="Helvetica" text-anchor="middle" font-size="12px"><text x="609.5" y="10.5">R</text><text x="609.5" y="24.5">/</text><text x="609.5" y="38.5">W</text></g><rect x="620" y="0" width="20" height="40" fill="#f0a30a" stroke="#bd7000" pointer-events="all"/><g fill="#000000" font-family="Helvetica" text-anchor="middle" font-size="12px"><text x="629.5" y="24.5">P</text></g></g></svg>