<?xml version="1.0" encoding="UTF-8"?>
<!DOCTYPE svg PUBLIC "-//W3C//DTD SVG 1.1//EN" "http://www.w3.org/Graphics/SVG/1.1/DTD/svg11.dtd">
<svg xmlns="http://www.w3.org/2000/svg" xmlns:xlink="http://www.w3.org/1999/xlink" version="1.1" width="521px" height="191px" viewBox="-0.5 -0.5 521 191"><defs/><g><path d="M 366.37 95 L 393.63 95" fill="none" stroke="rgb(0, 0, 0)" stroke-miterlimit="10" pointer-events="stroke"/><path d="M 361.12 95 L 368.12 91.5 L 366.37 95 L 368.12 98.5 Z" fill="rgb(0, 0, 0)" stroke="rgb(0, 0, 0)" stroke-miterlimit="10" pointer-events="all"/><path d="M 398.88 95 L 391.88 98.5 L 393.63 95 L 391.88 91.5 Z" fill="rgb(0, 0, 0)" stroke="rgb(0, 0, 0)" stroke-miterlimit="10" pointer-events="all"/><rect x="160" y="0" width="200" height="190" rx="28.5" ry="28.5" fill="#fad7ac" stroke="#b46504" pointer-events="all"/><rect x="170" y="30" width="180" height="50" fill="#fad9d5" stroke="#ae4132" pointer-events="all"/><rect x="230" y="0" width="60" height="30" fill="none" stroke="none" pointer-events="all"/><g fill="rgb(0, 0, 0)" font-family="Helvetica" text-anchor="middle" font-size="10px"><text x="259.5" y="18.5">Centralna jednostka obliczeniowa</text></g><rect x="230" y="30" width="60" height="20" fill="none" stroke="none" pointer-events="all"/><g fill="rgb(0, 0, 0)" font-family="Helvetica" text-anchor="middle" font-size="10px"><text x="259.5" y="43.5">Jednostka sterująca</text></g><rect x="170" y="60" width="90" height="20" fill="#bac8d3" stroke="#23445d" pointer-events="all"/><g fill="rgb(0, 0, 0)" font-family="Helvetica" text-anchor="middle" font-size="10px"><text x="214.5" y="73.5">Licznik programu</text></g><rect x="260" y="60" width="90" height="20" fill="#bac8d3" stroke="#23445d" pointer-events="all"/><g fill="rgb(0, 0, 0)" font-family="Helvetica" text-anchor="middle" font-size="10px"><text x="304.5" y="73.5">Wskaźnik rozkazu</text></g><rect x="170" y="90" width="180" height="50" fill="#d0cee2" stroke="#56517e" pointer-events="all"/><g fill="rgb(0, 0, 0)" font-family="Helvetica" text-anchor="middle" font-size="10px"><text x="259.5" y="112.5">Jednostka</text><text x="259.5" y="124.5">Arytmetyczno-Logiczna</text></g><rect x="170" y="150" width="180" height="20" fill="#d0cee2" stroke="#56517e" pointer-events="all"/><g fill="rgb(0, 0, 0)" font-family="Helvetica" text-anchor="middle" font-size="10px"><text x="259.5" y="163.5">Rejestry procesora</text></g><path d="M 126.37 140.03 L 153.63 140.03" fill="none" stroke="rgb(0, 0, 0)" stroke-miterlimit="10" pointer-events="stroke"/><path d="M 121.12 140.03 L 128.12 136.53 L 126.37 140.03 L 128.12 143.53 Z" fill="rgb(0, 0, 0)" stroke="rgb(0, 0, 0)" stroke-miterlimit="10" pointer-events="all"/><path d="M 158.88 140.03 L 151.88 143.53 L 153.63 140.03 L 151.88 136.53 Z" fill="rgb(0, 0, 0)" stroke="rgb(0, 0, 0)" stroke-miterlimit="10" pointer-events="all"/><rect x="0" y="110" width="120" height="60" rx="9" ry="9" fill="#bac8d3" stroke="#23445d" pointer-events="all"/><g fill="rgb(0, 0, 0)" font-family="Helvetica" text-anchor="middle" font-size="10px"><text x="59.5" y="137.5">Urządzenia</text><text x="59.5" y="149.5">Wejścia/Wyjścia</text></g><rect x="400" y="65" width="120" height="60" rx="9" ry="9" fill="#d0cee2" stroke="#56517e" pointer-events="all"/><g fill="rgb(0, 0, 0)" font-family="Helvetica" text-anchor="middle" font-size="10px"><text x="459.5" y="98.5">Pamięć Operacyjna</text></g><path d="M 126.37 60 L 140 60 L 153.03 59.77" fill="none" stroke="rgb(0, 0, 0)" stroke-miterlimit="10" pointer-events="stroke"/><path d="M 121.12 60 L 128.12 56.5 L 126.37 60 L 128.12 63.5 Z" fill="rgb(0, 0, 0)" stroke="rgb(0, 0, 0)" stroke-miterlimit="10" pointer-events="all"/><path d="M 158.28 59.68 L 151.34 63.3 L 153.03 59.77 L 151.22 56.3 Z" fill="rgb(0, 0, 0)" stroke="rgb(0, 0, 0)" stroke-miterlimit="10" pointer-events="all"/><rect x="0" y="30" width="120" height="60" rx="9" ry="9" fill="#bac8d3" stroke="#23445d" pointer-events="all"/><g fill="rgb(0, 0, 0)" font-family="Helvetica" text-anchor="middle" font-size="10px"><text x="59.5" y="57.5">Pamięć</text><text x="59.5" y="69.5">Masowa</text></g></g></svg>